<svg width="82" height="82" viewBox="0 0 82 82" fill="none" xmlns="http://www.w3.org/2000/svg">
<path d="M19.4001 62.6001V55.4001H12.2001V62.6001H8.6001V44.6001H12.2001V51.8001H19.4001V44.6001H23.0001V62.6001H19.4001Z" fill="black"/>
<path d="M30.1999 62.6001V48.2001H25.1599V44.6001H38.4799V48.2001H33.7999V62.6001H30.1999Z" fill="black"/>
<path d="M41 62.6001V44.6001H44.6L49.64 56.8401H50L55.4 44.6001H59V62.6001H55.4V51.4401H55.04L51.08 60.4401H48.92L44.96 51.4401H44.6V62.6001H41Z" fill="black"/>
<path d="M73.4001 62.6001H62.6001V44.6001H66.2001V59.0001H73.4001V62.6001Z" fill="black"/>
<path d="M38.8401 20.12L30.5601 28.4001L38.8401 36.6801L36.6801 41.0001L24.0801 28.4001L36.6801 15.8L38.8401 20.12ZM43.1601 36.6801L51.4401 28.4001L43.1601 20.12L45.3201 15.8L57.9201 28.4001L45.3201 41.0001L43.1601 36.6801Z" fill="black"/>
<rect x="2.5" y="2.5" width="77" height="77" stroke="black" stroke-width="5"/>
</svg>
