<svg width="53" height="53" viewBox="0 0 53 53" fill="none" xmlns="http://www.w3.org/2000/svg">
<path d="M53 26.5C53 11.8644 41.1356 3.8147e-06 26.5 3.8147e-06C11.8644 3.8147e-06 0 11.8644 0 26.5C0 39.7269 9.69067 50.69 22.3594 52.6781V34.1602H15.6309V26.5H22.3594V20.6617C22.3594 14.0202 26.3156 10.3516 32.3688 10.3516C35.2681 10.3516 38.3008 10.8691 38.3008 10.8691V17.3906H34.9592C31.6672 17.3906 30.6406 19.4333 30.6406 21.529V26.5H37.9902L36.8153 34.1602H30.6406V52.6781C43.3093 50.69 53 39.7269 53 26.5Z" fill="#1877F2"/>
<path d="M36.8153 34.1602L37.9902 26.5H30.6406V21.529C30.6406 19.4333 31.6672 17.3906 34.9592 17.3906H38.3008V10.8691C38.3008 10.8691 35.2681 10.3516 32.3688 10.3516C26.3156 10.3516 22.3594 14.0202 22.3594 20.6617V26.5H15.6309V34.1602H22.3594V52.6781C23.7085 52.8898 25.0914 53 26.5 53C27.9086 53 29.2914 52.8898 30.6406 52.6781V34.1602H36.8153Z" fill="white"/>
</svg>
