<svg width="55" height="53" viewBox="0 0 55 53" fill="none" xmlns="http://www.w3.org/2000/svg">
<g clip-path="url(#clip0)">
<circle cx="27" cy="27" r="27" fill="#FFFFFA"/>
<path d="M27.5002 0C12.3143 0 0 12.149 0 27.1362C0 39.1257 7.87965 49.2975 18.8063 52.8857C20.1807 53.1369 20.6853 52.297 20.6853 51.5803C20.6853 50.9332 20.6598 48.7956 20.6479 46.5281C12.9973 48.1696 11.383 43.3264 11.383 43.3264C10.132 40.1898 8.32958 39.3558 8.32958 39.3558C5.83449 37.6716 8.51766 37.7062 8.51766 37.7062C11.2792 37.8976 12.7332 40.5026 12.7332 40.5026C15.186 44.6511 19.1665 43.4518 20.7358 42.7584C20.9827 41.0045 21.6953 39.8074 22.4818 39.1298C16.3736 38.4436 9.9526 36.1168 9.9526 25.7189C9.9526 22.7563 11.0269 20.3355 12.786 18.4352C12.5005 17.7517 11.5592 14.9917 13.0525 11.2539C13.0525 11.2539 15.3617 10.5246 20.617 14.0355C22.8106 13.4342 25.1632 13.1327 27.5002 13.1223C29.8373 13.1327 32.1917 13.4342 34.3894 14.0355C39.6383 10.5246 41.9444 11.2539 41.9444 11.2539C43.4412 14.9917 42.4995 17.7517 42.214 18.4352C43.9772 20.3355 45.0442 22.7563 45.0442 25.7189C45.0442 36.1415 38.6109 38.4364 32.4872 39.1082C33.4736 39.9503 34.3525 41.6017 34.3525 44.1334C34.3525 47.7643 34.3206 50.6865 34.3206 51.5803C34.3206 52.3024 34.8156 53.1486 36.2096 52.8821C47.1304 49.2899 55 39.1217 55 27.1362C55 12.149 42.6876 0 27.5002 0ZM10.2997 38.6561C10.2392 38.7909 10.0242 38.8314 9.8284 38.7388C9.62894 38.6503 9.51691 38.4665 9.58158 38.3312C9.64078 38.1924 9.85618 38.1537 10.0552 38.2468C10.2551 38.3353 10.3689 38.5209 10.2997 38.6561ZM11.6524 39.8472C11.5213 39.9671 11.2649 39.9114 11.0909 39.7218C10.9111 39.5326 10.8774 39.2796 11.0103 39.1578C11.1456 39.0378 11.3942 39.094 11.5746 39.2832C11.7544 39.4746 11.7895 39.7258 11.6524 39.8472ZM12.5804 41.371C12.4119 41.4865 12.1364 41.3782 11.9661 41.1369C11.7976 40.8956 11.7976 40.6062 11.9698 40.4903C12.1405 40.3743 12.4119 40.4786 12.5845 40.7181C12.7526 40.9635 12.7526 41.2528 12.5804 41.371ZM14.1499 43.1359C13.9992 43.2999 13.6781 43.2559 13.4431 43.0321C13.2027 42.8132 13.1357 42.5027 13.2869 42.3387C13.4395 42.1743 13.7624 42.2205 13.9992 42.4425C14.2378 42.6609 14.3107 42.9737 14.1499 43.1359ZM16.1783 43.7317C16.1118 43.9442 15.8026 44.0409 15.4911 43.9505C15.1801 43.8575 14.9765 43.6086 15.0393 43.3938C15.104 43.1799 15.4146 43.0792 15.7283 43.1758C16.0389 43.2684 16.2429 43.5155 16.1783 43.7317ZM18.4866 43.9844C18.4944 44.2082 18.2303 44.3938 17.9033 44.3978C17.5745 44.405 17.3085 44.2239 17.3049 44.0037C17.3049 43.7777 17.5631 43.5939 17.8919 43.5885C18.2189 43.5822 18.4866 43.762 18.4866 43.9844ZM20.7544 43.8986C20.7935 44.117 20.5663 44.3413 20.2416 44.401C19.9224 44.4585 19.6268 44.3237 19.5863 44.1071C19.5467 43.8834 19.778 43.6591 20.0968 43.6012C20.4219 43.5454 20.7129 43.6766 20.7544 43.8986Z" fill="#161614"/>
</g>
<defs>
<clipPath id="clip0">
<rect width="55" height="53" fill="white"/>
</clipPath>
</defs>
</svg>
