<svg width="59" height="50" viewBox="0 0 59 50" fill="none" xmlns="http://www.w3.org/2000/svg">
<g clip-path="url(#clip0)">
<circle cx="25" cy="25" r="24" fill="#FFFFFA"/>
<path d="M42.5062 42.2525H35.1143V30.7456C35.1143 28.0017 35.0651 24.4694 31.2698 24.4694C27.4198 24.4694 26.8307 27.459 26.8307 30.5459V42.2518H19.4388V18.5889H26.535V21.8227H26.6344C27.3446 20.6157 28.3708 19.6228 29.6037 18.9496C30.8367 18.2765 32.2302 17.9484 33.636 18.0003C41.128 18.0003 42.5093 22.8988 42.5093 29.2715L42.5062 42.2525ZM11.0982 15.3544C10.2498 15.3545 9.42039 15.1046 8.71488 14.6362C8.00937 14.1678 7.45948 13.5019 7.13466 12.7228C6.80985 11.9437 6.72472 11.0864 6.89009 10.2592C7.05546 9.43207 7.46388 8.67223 8.06369 8.07579C8.6635 7.47935 9.42777 7.07311 10.2598 6.90843C11.0919 6.74376 11.9544 6.82805 12.7383 7.15064C13.5222 7.47323 14.1922 8.01964 14.6637 8.72076C15.1352 9.42189 15.3869 10.2462 15.3871 11.0896C15.3872 11.6495 15.2763 12.204 15.0608 12.7214C14.8454 13.2388 14.5295 13.7089 14.1312 14.1049C13.733 14.5009 13.2601 14.8151 12.7397 15.0295C12.2193 15.2439 11.6615 15.3543 11.0982 15.3544ZM14.7942 42.2525H7.39455V18.5889H14.7942V42.2525ZM46.1914 0.00288266H3.68012C2.71524 -0.00794102 1.78545 0.36246 1.09517 1.03269C0.404877 1.70292 0.0105552 2.61815 -0.0012207 3.57726V46.0098C0.0101522 46.9694 0.404243 47.8853 1.09451 48.5562C1.78477 49.2271 2.71476 49.5983 3.68012 49.588H46.1914C47.1587 49.6001 48.0913 49.23 48.7843 48.5591C49.4773 47.8882 49.874 46.9713 49.8874 46.0098V3.5742C49.8736 2.61319 49.4766 1.69692 48.7836 1.0267C48.0906 0.356488 47.1583 -0.0128547 46.1914 -0.00018015" fill="#0A66C2"/>
</g>
<defs>
<clipPath id="clip0">
<rect width="59" height="50" fill="white"/>
</clipPath>
</defs>
</svg>
