<svg width="100" height="100" viewBox="0 0 100 100" fill="none" xmlns="http://www.w3.org/2000/svg">
<path d="M46.5875 9.2207C47.6297 8.63791 48.8038 8.33191 49.9979 8.33191C51.192 8.33191 52.3661 8.63791 53.4083 9.2207L84.5708 26.8249C85.5472 27.3808 86.3605 28.1833 86.9294 29.1521C87.4983 30.121 87.8028 31.2222 87.8125 32.3457V67.6582C87.7934 68.825 87.4596 69.965 86.8466 70.958C86.2335 71.951 85.3637 72.76 84.3291 73.2999L53.2791 90.8165C52.2174 91.4034 51.0178 91.6951 49.8051 91.6614C48.5924 91.6277 47.4108 91.2698 46.3833 90.6249L37.0666 85.2415C36.3846 84.9367 35.7721 84.4957 35.2666 83.9457C35.6625 83.4124 36.3708 83.3457 36.9458 83.1124C38.223 82.6561 39.4548 82.0814 40.625 81.3957C40.7723 81.3088 40.9423 81.268 41.1131 81.2783C41.2838 81.2887 41.4476 81.3499 41.5833 81.454C44.2333 82.9749 46.8625 84.5415 49.5291 86.0499C50.0958 86.379 50.6708 85.9415 51.1541 85.6749C61.3153 79.9304 71.4777 74.1943 81.6416 68.4665C81.823 68.3761 81.9728 68.2331 82.0717 68.0562C82.1705 67.8793 82.2138 67.6767 82.1958 67.4749C82.2041 55.8276 82.2055 44.179 82.2 32.529C82.2182 32.3027 82.1654 32.0763 82.0489 31.8813C81.9324 31.6864 81.758 31.5327 81.55 31.4415C71.2333 25.6304 60.9194 19.8165 50.6083 13.9999C50.4292 13.877 50.2172 13.8112 50 13.8112C49.7828 13.8112 49.5707 13.877 49.3916 13.9999C39.0777 19.811 28.7666 25.6263 18.4583 31.4457C18.2491 31.5344 18.0732 31.6869 17.9558 31.8814C17.8383 32.0759 17.7852 32.3026 17.8041 32.529V67.4749C17.7865 67.676 17.831 67.8777 17.9316 68.0528C18.0322 68.2279 18.184 68.3679 18.3666 68.454C21.1166 70.0152 23.8708 71.5707 26.6291 73.1207C27.3932 73.593 28.2483 73.8988 29.1386 74.018C30.029 74.1372 30.9344 74.0671 31.7958 73.8124C32.5435 73.5311 33.1873 73.0279 33.6409 72.3703C34.0944 71.7126 34.336 70.9321 34.3333 70.1332C34.3458 58.5499 34.325 46.9665 34.3416 35.3915C34.3388 35.2686 34.362 35.1465 34.4095 35.0332C34.4571 34.9198 34.528 34.8178 34.6176 34.7336C34.7072 34.6495 34.8136 34.5852 34.9297 34.5449C35.0458 34.5047 35.1692 34.4893 35.2916 34.4999C36.6166 34.4915 37.9375 34.4832 39.2625 34.504C39.3911 34.5101 39.5171 34.5432 39.6321 34.6012C39.7472 34.6592 39.8487 34.7407 39.9301 34.8406C40.0114 34.9405 40.0709 35.0563 40.1044 35.1807C40.138 35.3051 40.145 35.4351 40.125 35.5624C40.1208 47.2165 40.1375 58.8707 40.1166 70.5207C40.2055 72.1044 39.8677 73.683 39.1384 75.0916C38.4092 76.5002 37.3153 77.6873 35.9708 78.529C34.1753 79.3655 32.2098 79.7728 30.2298 79.7185C28.2497 79.6643 26.3095 79.1501 24.5625 78.2165C21.5333 76.704 18.6458 74.9249 15.675 73.2999C14.6403 72.7605 13.7707 71.9515 13.1582 70.9583C12.5457 69.9652 12.2132 68.8249 12.1958 67.6582V32.3457C12.2047 31.1996 12.52 30.0767 13.109 29.0935C13.6981 28.1103 14.5394 27.3025 15.5458 26.754C25.8958 20.9124 36.2444 15.0679 46.5916 9.2207H46.5875Z" fill="black"/>
<path d="M55.6166 33.6792C60.1903 33.0884 64.8379 33.8004 69.025 35.7334C70.5423 36.6385 71.7968 37.9243 72.6643 39.4635C73.5318 41.0026 73.9822 42.7417 73.9708 44.5084C73.9122 44.7294 73.7759 44.9218 73.5868 45.0504C73.3978 45.179 73.1687 45.2351 72.9416 45.2084C71.6291 45.2084 70.3208 45.2251 69.0125 45.2001C68.7599 45.1845 68.5222 45.075 68.3464 44.893C68.1706 44.711 68.0693 44.4697 68.0625 44.2167C67.9138 43.3614 67.5807 42.5486 67.0864 41.8348C66.5921 41.1211 65.9484 40.5234 65.2 40.0834C62.7089 39.0934 60.0188 38.7079 57.35 38.9584C55.383 38.8972 53.4376 39.3818 51.7291 40.3584C51.1408 40.8148 50.7102 41.4441 50.498 42.1578C50.2857 42.8715 50.3024 43.6338 50.5458 44.3376C50.9666 45.3376 52.1208 45.6584 53.0666 45.9542C58.5083 47.3792 64.275 47.2376 69.6083 49.1084C70.7541 49.4273 71.8117 50.0043 72.7001 50.7951C73.5884 51.586 74.2839 52.5697 74.7333 53.6709C75.268 55.2326 75.3971 56.9046 75.1085 58.5299C74.8199 60.1552 74.123 61.6805 73.0833 62.9626C71.2022 64.9169 68.758 66.2351 66.0916 66.7334C62.6193 67.439 59.0572 67.5909 55.5375 67.1834C52.1595 66.9895 48.921 65.7699 46.2541 63.6876C45.1976 62.7169 44.3686 61.5249 43.8262 60.1967C43.2839 58.8685 43.0416 57.4369 43.1166 56.0042C43.1428 55.7744 43.2586 55.5642 43.4387 55.4191C43.6189 55.274 43.849 55.2058 44.0791 55.2292C45.4 55.2167 46.7166 55.2126 48.0375 55.2292C48.1596 55.227 48.281 55.2491 48.3946 55.294C48.5082 55.339 48.6118 55.406 48.6994 55.4913C48.7869 55.5765 48.8567 55.6782 48.9047 55.7906C48.9528 55.903 48.978 56.0237 48.9791 56.1459C49.0441 56.9627 49.2757 57.7576 49.6599 58.4814C50.044 59.2052 50.5724 59.8426 51.2125 60.3542C54.0365 61.744 57.1923 62.3183 60.325 62.0126C62.9477 62.2128 65.566 61.5721 67.8 60.1834C68.3147 59.6814 68.6894 59.0536 68.8867 58.3622C69.084 57.6708 69.0972 56.9398 68.925 56.2417C68.6 55.0751 67.3833 54.5334 66.3375 54.1792C60.9625 52.4792 55.1375 53.0959 49.8166 51.1792C48.7008 50.8518 47.6692 50.2863 46.793 49.5216C45.9169 48.757 45.217 47.8114 44.7416 46.7501C44.1306 45.1673 43.9761 43.4448 44.2958 41.7786C44.6155 40.1123 45.3965 38.5693 46.55 37.3251C49.064 35.105 52.2655 33.8176 55.6166 33.6792Z" fill="black"/>
</svg>
