<svg width="75" height="77" viewBox="0 0 75 77" fill="none" xmlns="http://www.w3.org/2000/svg">
<path d="M19.2188 52.9375C25.7812 52.9375 28.125 48.125 28.125 48.125L24.375 45.7188C24.375 45.7188 22.9688 48.125 19.6875 48.125C16.4062 48.125 14.0625 43.7938 14.0625 37.5375C14.0625 31.7625 16.875 28.875 19.6875 28.875C22.0312 28.875 23.9062 30.8 23.9062 30.8L27.6562 27.9125C27.6562 27.9125 24.375 24.0625 19.6875 24.0625C14.5312 24.0625 9.375 28.3938 9.375 37.5375C9.375 46.6813 13.5937 52.9375 19.2188 52.9375ZM40.7812 47.6437C39.375 48.125 37.5 47.6437 36.0938 45.7188L32.3438 48.125C34.2188 51.0125 37.0312 52.9375 39.8438 52.9375C40.3125 52.9375 41.25 52.9375 41.7188 52.4562C45 51.4937 46.875 48.6063 46.875 44.7563C46.875 38.9813 43.125 37.0563 40.7812 36.0938C38.4375 34.65 37.5 34.1688 37.5 32.2437C37.5 30.3187 37.9688 28.875 40.3125 28.875C41.7188 28.875 43.125 30.8 43.125 30.8L46.875 27.9125C45.9375 26.4688 43.5938 24.0625 40.3125 24.0625C36.0938 24.0625 32.8125 26.95 32.8125 31.7625C32.8125 37.0563 36.0938 38.9812 38.4375 40.425C41.25 41.3875 42.1875 42.35 42.1875 44.7563C42.1875 46.2 42.1875 47.6437 40.7812 47.6437ZM59.5312 47.6437C58.125 48.125 56.25 47.6437 54.8438 45.7188L51.0938 48.125C52.9688 51.0125 55.7812 52.9375 58.5938 52.9375C59.0625 52.9375 60 52.9375 60.4688 52.4562C63.75 51.4937 65.625 48.6063 65.625 44.7563C65.625 38.9813 61.875 37.0563 59.5312 36.0938C57.1875 34.65 56.25 34.1688 56.25 32.2437C56.25 30.3187 56.7188 28.875 59.0625 28.875C60.4688 28.875 61.875 30.8 61.875 30.8L65.625 27.9125C64.6875 26.4688 62.3438 24.0625 59.0625 24.0625C54.8438 24.0625 51.5625 26.95 51.5625 31.7625C51.5625 37.0563 54.8438 38.9812 57.1875 40.425C60 41.3875 60.9375 42.35 60.9375 44.7563C60.9375 46.2 60.9375 47.6437 59.5312 47.6437ZM0 0V77H75V0H0ZM70.3125 72.1875H4.6875V4.8125H70.3125V72.1875Z" fill="black"/>
</svg>
